<svg xmlns="http://www.w3.org/2000/svg" viewBox="0 0 62.23 59.81"><defs><style>.cls-1{fill:#25d9b8;}</style></defs><title>Asset 6No1</title><g id="Layer_2" data-name="Layer 2"><g id="layout"><path class="cls-1" d="M26.9,59.81H0V36.51C0,17.29,7.19,7.12,25.58,0l.76,2C8.71,8.78,2.14,18.12,2.14,36.51V57.67H26.9Zm0-25.58H11.75l-.06-1c-.9-11.76,3.8-18.74,17.42-25.65l1,1.86C17.77,15.76,13.28,22,13.76,32.08H26.9ZM62.23,59.81H31.53V36.51C31.53,17.29,38.72,7.12,57.18,0l.76,2c-17.7,6.77-24.27,16.11-24.27,34.5V57.67H60.09V34.23H43.35l-.07-1C42.32,21.5,47,14.52,60.64,7.61l1,1.86C49.3,15.76,44.81,22,45.29,32.08H62.16l.07,27.73Z"/></g></g></svg>