<?xml version="1.0" encoding="UTF-8"?>
<svg width="45px" height="45px" viewBox="0 0 45 45" version="1.1" xmlns="http://www.w3.org/2000/svg" xmlns:xlink="http://www.w3.org/1999/xlink">
    <!-- Generator: Sketch 53.2 (72643) - https://sketchapp.com -->
    <title>email</title>
    <desc>Created with Sketch.</desc>
    <g id="email" stroke="none" stroke-width="1" fill="none" fill-rule="evenodd">
        <g id="Group" transform="translate(10.000000, 12.000000)" fill="#00486D" fill-rule="nonzero">
            <path d="M2.9,0.862071595 L22.9,0.862071595 C23.266584,0.864019198 23.6283293,0.945923785 23.96,1.1020716 L12.96,13.9920716 L1.96,1.1020716 C2.22350685,0.843669397 2.60791801,0.751410717 2.96,0.862071595 L2.9,0.862071595 Z" id="Path"></path>
            <path d="M0.37,18.3220716 L0.37,3.1420716 L7.74,11.7120716 L0.48,18.9720716 C0.414249604,18.7620246 0.387144197,18.5417932 0.4,18.3220716 L0.37,18.3220716 Z" id="Path"></path>
            <path d="M22.8,20.7720716 L2.8,20.7720716 C2.57949292,20.7858926 2.35845582,20.7552875 2.15,20.6820716 L9.26,13.6320716 L12.74,17.6320716 L16.27,13.6320716 L23.37,20.7220716 C23.29,20.8120716 23.05,20.8120716 22.8,20.8120716 L22.8,20.7720716 Z" id="Path"></path>
            <path d="M25.33,18.3220716 C25.3428558,18.5417932 25.3157504,18.7620246 25.25,18.9720716 L17.99,11.7120716 L25.33,3.1420716 L25.33,18.3220716 L25.33,18.3220716 Z" id="Path"></path>
        </g>
    </g>
</svg>