<?xml version="1.0" encoding="utf-8"?>
<!-- Generator: Adobe Illustrator 23.1.1, SVG Export Plug-In . SVG Version: 6.00 Build 0)  -->
<svg version="1.1" id="Layer_1" xmlns="http://www.w3.org/2000/svg" xmlns:xlink="http://www.w3.org/1999/xlink" x="0px" y="0px"
	 viewBox="0 0 45 45" style="enable-background:new 0 0 45 45;" xml:space="preserve">
<style type="text/css">
	.st0{fill:#25D9B8;}
</style>
<title>twitter</title>
<desc>Created with Sketch.</desc>
<g id="twitter">
	<g id="Path-3" transform="translate(8.260000, 11.299824)">
		<path id="Path" class="st0" d="M28.1,2.7c-1.1,0.5-2.2,0.8-3.3,0.9c1.2-0.7,2.1-1.9,2.5-3.2c-1.1,0.7-2.4,1.2-3.7,1.4
			C22.6,0.7,21.1,0,19.5,0c-1.5,0-3,0.6-4.1,1.7c-1.1,1.1-1.7,2.6-1.7,4.1c0,0.4,0.1,0.9,0.2,1.3C9.2,6.9,4.9,4.7,2,1
			C1.4,1.9,1.2,2.9,1.2,4c0,1.9,1,3.7,2.6,4.8C2.8,8.7,1.9,8.5,1.1,8v0.1c0,2.8,1.9,5.1,4.6,5.7c-0.5,0.1-1,0.2-1.5,0.2
			c-0.4,0-0.7,0-1.1-0.1c0.8,2.3,2.9,3.9,5.4,4c-2,1.6-4.6,2.5-7.2,2.5c-0.5,0-0.9,0-1.4-0.1c2.6,1.7,5.7,2.6,8.8,2.6
			c10.6,0,16.4-8.8,16.4-16.5V5.6C26.4,4.8,27.4,3.8,28.1,2.7z"/>
	</g>
</g>
</svg>
