<svg width="200" height="162" viewBox="0 0 200 162" fill="none" xmlns="http://www.w3.org/2000/svg">
<g clip-path="url(#clip0_615_113)">
<path d="M20.0748 0.230096H179.998C182.931 0.268192 185.82 0.951064 188.46 2.23017L100.306 105.306L12.2285 2.23017C13.2294 1.26193 14.4639 0.569264 15.8117 0.218829C17.1595 -0.131607 18.575 -0.127983 19.9208 0.230096H20.0748Z" fill="white"/>
<path d="M-0.00221465 139.921V18.5359L58.7672 87.0754L0.68983 145.153C0.116266 143.472 -0.118759 141.693 -0.00221465 139.921Z" fill="white"/>
<path d="M179.531 159.535H19.6072C17.8353 159.642 16.06 159.408 14.377 158.844L71.1462 102.073L99.2231 134.689L127.299 102.073L184.145 158.844C183.453 159.537 181.531 159.535 179.531 159.535Z" fill="white"/>
<path d="M199.769 139.921C199.866 141.687 199.658 143.458 199.154 145.153L141 87.0754L199.769 18.5359V139.921Z" fill="white"/>
</g>
<defs>
<clipPath id="clip0_615_113">
<rect width="200" height="161.538" fill="white"/>
</clipPath>
</defs>
</svg>
