<svg width="86" height="85" viewBox="0 0 86 85" fill="none" xmlns="http://www.w3.org/2000/svg">
<path d="M61.7004 85H25.1004C11.8004 85 0.900391 74.1 0.900391 60.8V24.2C0.900391 10.9 11.8004 0 25.1004 0H61.7004C75.0004 0 85.9004 10.9 85.9004 24.2V60.8C85.9004 74.1 75.1004 85 61.7004 85ZM25.1004 7.3C15.8004 7.3 8.20039 14.9 8.20039 24.2V60.8C8.20039 70.1 15.8004 77.7 25.1004 77.7H61.7004C71.0004 77.7 78.6004 70.1 78.6004 60.8V24.2C78.6004 14.9 71.0004 7.3 61.7004 7.3H25.1004V7.3Z" fill="white"/>
<path d="M43.3996 64.3C31.3996 64.3 21.5996 54.5 21.5996 42.5C21.5996 30.5 31.3996 20.7 43.3996 20.7C55.3996 20.7 65.1996 30.5 65.1996 42.5C65.1996 54.5 55.3996 64.3 43.3996 64.3ZM43.3996 28C35.3996 28 28.8996 34.5 28.8996 42.5C28.8996 50.5 35.3996 57 43.3996 57C51.3996 57 57.8996 50.5 57.8996 42.5C57.8996 34.5 51.3996 28 43.3996 28Z" fill="white"/>
<path d="M71.3004 19.5C71.3004 22.4 69.0004 24.7001 66.1004 24.7001C63.2004 24.7001 60.9004 22.4 60.9004 19.5C60.9004 16.6 63.2004 14.3 66.1004 14.3C69.0004 14.3 71.3004 16.6 71.3004 19.5Z" fill="white"/>
</svg>
