<svg width="163" height="176" viewBox="0 0 163 176" fill="none" xmlns="http://www.w3.org/2000/svg">
<g clip-path="url(#clip0_615_131)">
<path d="M35.5233 53.2559H0.583984V175.804H35.5233V53.2559Z" fill="white"/>
<path d="M17.7284 35.4607C27.5206 35.4607 35.4588 27.5226 35.4588 17.7304C35.4588 7.93819 27.5206 0 17.7284 0C7.93623 0 -0.00195312 7.93819 -0.00195312 17.7304C-0.00195312 27.5226 7.93623 35.4607 17.7284 35.4607Z" fill="white"/>
<path d="M158.008 175.739H123.067V105.926C123.067 101.224 121.2 96.714 117.875 93.3889C114.549 90.0639 110.04 88.1956 105.337 88.1956C100.635 88.1956 96.1248 90.0639 92.7997 93.3889C89.4747 96.714 87.6071 101.224 87.6071 105.926V175.739H52.668V53.2559H87.6071V74.963C95.0382 65.2505 105.924 53.2559 118.505 53.2559C140.277 53.2559 158.008 72.8113 158.008 97.3209V175.543V175.739Z" fill="white"/>
</g>
<defs>
<clipPath id="clip0_615_131">
<rect width="162.963" height="176" fill="white"/>
</clipPath>
</defs>
</svg>
