<svg width="101" height="29" viewBox="0 0 101 29" fill="none" xmlns="http://www.w3.org/2000/svg">
<path d="M1.888 27H15.46V25.56H3.436V1.8H1.888V27ZM17.0693 14.22C17.0693 21.636 22.7933 27.432 29.8133 27.432C36.8333 27.432 42.5573 21.636 42.5573 14.22C42.5573 6.984 36.8333 1.368 29.8133 1.368C22.7933 1.368 17.0693 6.984 17.0693 14.22ZM18.6893 14.22C18.6893 7.776 23.6573 2.844 29.8133 2.844C35.9693 2.844 40.9373 7.776 40.9373 14.22C40.9373 20.844 35.9693 25.956 29.8133 25.956C23.6573 25.956 18.6893 20.844 18.6893 14.22ZM46.8835 14.4C46.8835 21.708 52.2115 27.432 59.2315 27.432C64.8115 27.432 67.8355 23.724 67.8355 23.724H67.9075C67.9075 23.724 67.8715 24.264 67.8715 24.804V27H69.4195V15.516H63.3715V16.956H67.8715V21.816C67.8715 21.816 64.6315 25.956 59.2315 25.956C53.0035 25.956 48.5035 20.952 48.5035 14.4C48.5035 7.884 53.1115 2.844 59.4475 2.844C64.2715 2.844 67.2955 5.4 67.2955 5.4L68.2315 4.212C68.2315 4.212 65.1355 1.368 59.4475 1.368C52.3195 1.368 46.8835 7.128 46.8835 14.4ZM74.0576 14.22C74.0576 21.636 79.7816 27.432 86.8016 27.432C93.8216 27.432 99.5456 21.636 99.5456 14.22C99.5456 6.984 93.8216 1.368 86.8016 1.368C79.7816 1.368 74.0576 6.984 74.0576 14.22ZM75.6776 14.22C75.6776 7.776 80.6456 2.844 86.8016 2.844C92.9576 2.844 97.9256 7.776 97.9256 14.22C97.9256 20.844 92.9576 25.956 86.8016 25.956C80.6456 25.956 75.6776 20.844 75.6776 14.22Z" fill="white"/>
<path d="M1.888 27H0.888V28H1.888V27ZM15.46 27V28H16.46V27H15.46ZM15.46 25.56H16.46V24.56H15.46V25.56ZM3.436 25.56H2.436V26.56H3.436V25.56ZM3.436 1.8H4.436V0.799998H3.436V1.8ZM1.888 1.8V0.799998H0.888V1.8H1.888ZM1.888 28H15.46V26H1.888V28ZM16.46 27V25.56H14.46V27H16.46ZM15.46 24.56H3.436V26.56H15.46V24.56ZM4.436 25.56V1.8H2.436V25.56H4.436ZM3.436 0.799998H1.888V2.8H3.436V0.799998ZM0.888 1.8V27H2.888V1.8H0.888ZM16.0693 14.22C16.0693 22.1609 22.2141 28.432 29.8133 28.432V26.432C23.3726 26.432 18.0693 21.1111 18.0693 14.22H16.0693ZM29.8133 28.432C37.4126 28.432 43.5573 22.1609 43.5573 14.22H41.5573C41.5573 21.1111 36.2541 26.432 29.8133 26.432V28.432ZM43.5573 14.22C43.5573 6.43171 37.3856 0.368 29.8133 0.368V2.368C36.281 2.368 41.5573 7.53628 41.5573 14.22H43.5573ZM29.8133 0.368C22.241 0.368 16.0693 6.43171 16.0693 14.22H18.0693C18.0693 7.53628 23.3456 2.368 29.8133 2.368V0.368ZM19.6893 14.22C19.6893 8.31567 24.2221 3.844 29.8133 3.844V1.844C23.0925 1.844 17.6893 7.23633 17.6893 14.22H19.6893ZM29.8133 3.844C35.4045 3.844 39.9373 8.31567 39.9373 14.22H41.9373C41.9373 7.23633 36.5341 1.844 29.8133 1.844V3.844ZM39.9373 14.22C39.9373 20.3355 35.3743 24.956 29.8133 24.956V26.956C36.5644 26.956 41.9373 21.3525 41.9373 14.22H39.9373ZM29.8133 24.956C24.2524 24.956 19.6893 20.3355 19.6893 14.22H17.6893C17.6893 21.3525 23.0623 26.956 29.8133 26.956V24.956ZM67.8355 23.724V22.724H67.3606L67.0605 23.092L67.8355 23.724ZM67.9075 23.724L68.9053 23.7905L68.9764 22.724H67.9075V23.724ZM67.8715 27H66.8715V28H67.8715V27ZM69.4195 27V28H70.4195V27H69.4195ZM69.4195 15.516H70.4195V14.516H69.4195V15.516ZM63.3715 15.516V14.516H62.3715V15.516H63.3715ZM63.3715 16.956H62.3715V17.956H63.3715V16.956ZM67.8715 16.956H68.8715V15.956H67.8715V16.956ZM67.8715 21.816L68.659 22.4323L68.8715 22.1608V21.816H67.8715ZM67.2955 5.4L66.65 6.16373L67.4404 6.83187L68.081 6.01887L67.2955 5.4ZM68.2315 4.212L69.017 4.83087L69.5907 4.10269L68.908 3.47556L68.2315 4.212ZM45.8835 14.4C45.8835 22.2036 51.6042 28.432 59.2315 28.432V26.432C52.8188 26.432 47.8835 21.2124 47.8835 14.4H45.8835ZM59.2315 28.432C62.2525 28.432 64.5875 27.4264 66.1637 26.4211C66.9509 25.9191 67.5518 25.4155 67.9599 25.0328C68.1642 24.8412 68.321 24.6792 68.4295 24.5616C68.4838 24.5028 68.5261 24.455 68.5562 24.4202C68.5713 24.4027 68.5834 24.3885 68.5924 24.3777C68.597 24.3724 68.6007 24.3678 68.6037 24.3642C68.6052 24.3624 68.6065 24.3608 68.6077 24.3594C68.6082 24.3587 68.6087 24.3581 68.6092 24.3575C68.6094 24.3573 68.6097 24.3569 68.6099 24.3567C68.6102 24.3564 68.6105 24.356 67.8355 23.724C67.0605 23.092 67.0608 23.0917 67.0611 23.0914C67.0611 23.0913 67.0614 23.091 67.0615 23.0908C67.0618 23.0904 67.062 23.0902 67.0622 23.0899C67.0626 23.0895 67.0628 23.0892 67.0629 23.0892C67.0629 23.0891 67.0622 23.0899 67.0609 23.0915C67.0581 23.0948 67.0525 23.1014 67.0441 23.1111C67.0273 23.1306 66.9991 23.1625 66.9598 23.2051C66.8812 23.2903 66.7582 23.4179 66.5918 23.5739C66.2584 23.8865 65.7546 24.3099 65.0883 24.7349C63.7575 25.5836 61.7905 26.432 59.2315 26.432V28.432ZM67.8355 24.724H67.9075V22.724H67.8355V24.724ZM67.9075 23.724C66.9097 23.6575 66.9097 23.6575 66.9097 23.6576C66.9097 23.6576 66.9097 23.6576 66.9097 23.6576C66.9097 23.6577 66.9097 23.6578 66.9097 23.6578C66.9097 23.658 66.9097 23.6582 66.9097 23.6584C66.9096 23.6588 66.9096 23.6594 66.9095 23.6601C66.9095 23.6615 66.9093 23.6634 66.9092 23.6658C66.9089 23.6706 66.9084 23.6775 66.9079 23.6862C66.9068 23.7035 66.9053 23.7284 66.9035 23.7598C66.8999 23.8224 66.8952 23.911 66.8905 24.0171C66.8811 24.2279 66.8715 24.5139 66.8715 24.804H68.8715C68.8715 24.5541 68.8799 24.3001 68.8885 24.1059C68.8928 24.0095 68.8971 23.9294 68.9002 23.8739C68.9018 23.8461 68.9031 23.8246 68.904 23.8104C68.9045 23.8032 68.9048 23.7979 68.905 23.7946C68.9051 23.7929 68.9052 23.7917 68.9053 23.791C68.9053 23.7907 68.9053 23.7905 68.9053 23.7904C68.9053 23.7903 68.9053 23.7903 68.9053 23.7904C68.9053 23.7904 68.9053 23.7904 68.9053 23.7904C68.9053 23.7904 68.9053 23.7905 68.9053 23.7905C68.9053 23.7905 68.9053 23.7905 67.9075 23.724ZM66.8715 24.804V27H68.8715V24.804H66.8715ZM67.8715 28H69.4195V26H67.8715V28ZM70.4195 27V15.516H68.4195V27H70.4195ZM69.4195 14.516H63.3715V16.516H69.4195V14.516ZM62.3715 15.516V16.956H64.3715V15.516H62.3715ZM63.3715 17.956H67.8715V15.956H63.3715V17.956ZM66.8715 16.956V21.816H68.8715V16.956H66.8715ZM67.8715 21.816C67.084 21.1997 67.0842 21.1994 67.0844 21.1991C67.0845 21.199 67.0847 21.1988 67.0848 21.1986C67.0851 21.1983 67.0852 21.1981 67.0854 21.1979C67.0856 21.1976 67.0857 21.1975 67.0856 21.1977C67.0853 21.198 67.0843 21.1992 67.0826 21.2014C67.079 21.2059 67.0724 21.214 67.0628 21.2256C67.0436 21.2489 67.0124 21.286 66.9695 21.3351C66.8835 21.4332 66.7508 21.5787 66.5738 21.7558C66.2189 22.1107 65.6899 22.588 65.0047 23.0656C63.6313 24.0228 61.6678 24.956 59.2315 24.956V26.956C62.1952 26.956 64.5517 25.8192 66.1483 24.7064C66.9481 24.149 67.5666 23.5913 67.988 23.17C68.199 22.9589 68.3617 22.7809 68.474 22.6527C68.5302 22.5886 68.5739 22.5368 68.6048 22.4994C68.6202 22.4807 68.6325 22.4656 68.6415 22.4543C68.646 22.4487 68.6498 22.444 68.6527 22.4403C68.6541 22.4385 68.6554 22.4369 68.6565 22.4356C68.657 22.4349 68.6575 22.4343 68.6579 22.4337C68.6581 22.4335 68.6584 22.4331 68.6585 22.433C68.6588 22.4326 68.659 22.4323 67.8715 21.816ZM59.2315 24.956C53.6331 24.956 49.5035 20.4803 49.5035 14.4H47.5035C47.5035 21.4237 52.3739 26.956 59.2315 26.956V24.956ZM49.5035 14.4C49.5035 8.37409 53.724 3.844 59.4475 3.844V1.844C52.499 1.844 47.5035 7.39391 47.5035 14.4H49.5035ZM59.4475 3.844C61.6809 3.844 63.4973 4.43559 64.755 5.02695C65.3834 5.32243 65.8689 5.61629 66.1923 5.83227C66.3539 5.94015 66.4745 6.02822 66.5517 6.0868C66.5903 6.11608 66.618 6.13795 66.6345 6.15119C66.6427 6.15781 66.6481 6.16226 66.6507 6.16441C66.652 6.16548 66.6526 6.16597 66.6525 6.16586C66.6524 6.16581 66.6522 6.16561 66.6518 6.16525C66.6516 6.16508 66.6513 6.16486 66.651 6.16461C66.6509 6.16448 66.6506 6.16426 66.6505 6.1642C66.6502 6.16397 66.65 6.16373 67.2955 5.4C67.941 4.63627 67.9407 4.63601 67.9404 4.63574C67.9403 4.63564 67.94 4.63536 67.9397 4.63516C67.9392 4.63475 67.9387 4.6343 67.9381 4.63381C67.937 4.63284 67.9356 4.63171 67.9341 4.63043C67.931 4.62787 67.9272 4.62469 67.9226 4.62093C67.9135 4.6134 67.9014 4.6035 67.8863 4.5914C67.8561 4.5672 67.8141 4.53415 67.7606 4.49354C67.6536 4.41234 67.5002 4.30072 67.3029 4.16898C66.9086 3.90571 66.3366 3.56057 65.606 3.21704C64.1457 2.5304 62.0381 1.844 59.4475 1.844V3.844ZM68.081 6.01887L69.017 4.83087L67.446 3.59313L66.51 4.78113L68.081 6.01887ZM68.2315 4.212C68.908 3.47556 68.9077 3.47524 68.9073 3.47492C68.9072 3.4748 68.9068 3.47446 68.9065 3.47422C68.906 3.47373 68.9054 3.47319 68.9048 3.47261C68.9035 3.47146 68.9021 3.47013 68.9004 3.46864C68.8971 3.46565 68.893 3.46198 68.8882 3.45765C68.8785 3.44899 68.8657 3.43771 68.8498 3.42397C68.8181 3.3965 68.774 3.3592 68.7177 3.31351C68.6052 3.22214 68.4437 3.09704 68.2341 2.94965C67.8152 2.65502 67.2027 2.27029 66.4043 1.88805C64.8058 1.12267 62.4628 0.368 59.4475 0.368V2.368C62.1202 2.368 64.1692 3.03533 65.5407 3.69195C66.2273 4.02071 66.7443 4.34698 67.0836 4.5856C67.2532 4.70484 67.378 4.80192 67.457 4.86608C67.4965 4.89815 67.5245 4.92196 67.5409 4.93615C67.5491 4.94324 67.5544 4.94793 67.5567 4.95003C67.5579 4.95109 67.5583 4.9515 67.5581 4.95124C67.5579 4.95111 67.5576 4.95081 67.5571 4.95035C67.5568 4.95012 67.5565 4.94984 67.5562 4.94952C67.556 4.94936 67.5557 4.94909 67.5556 4.94901C67.5553 4.94873 67.555 4.94844 68.2315 4.212ZM59.4475 0.368C51.7271 0.368 45.8835 6.61673 45.8835 14.4H47.8835C47.8835 7.63927 52.9119 2.368 59.4475 2.368V0.368ZM73.0576 14.22C73.0576 22.1609 79.2023 28.432 86.8016 28.432V26.432C80.3608 26.432 75.0576 21.1111 75.0576 14.22H73.0576ZM86.8016 28.432C94.4008 28.432 100.546 22.1609 100.546 14.22H98.5456C98.5456 21.1111 93.2423 26.432 86.8016 26.432V28.432ZM100.546 14.22C100.546 6.43171 94.3739 0.368 86.8016 0.368V2.368C93.2693 2.368 98.5456 7.53628 98.5456 14.22H100.546ZM86.8016 0.368C79.2293 0.368 73.0576 6.43171 73.0576 14.22H75.0576C75.0576 7.53628 80.3339 2.368 86.8016 2.368V0.368ZM76.6776 14.22C76.6776 8.31567 81.2104 3.844 86.8016 3.844V1.844C80.0808 1.844 74.6776 7.23633 74.6776 14.22H76.6776ZM86.8016 3.844C92.3928 3.844 96.9256 8.31567 96.9256 14.22H98.9256C98.9256 7.23633 93.5224 1.844 86.8016 1.844V3.844ZM96.9256 14.22C96.9256 20.3355 92.3625 24.956 86.8016 24.956V26.956C93.5527 26.956 98.9256 21.3525 98.9256 14.22H96.9256ZM86.8016 24.956C81.2406 24.956 76.6776 20.3355 76.6776 14.22H74.6776C74.6776 21.3525 80.0505 26.956 86.8016 26.956V24.956Z" fill="white"/>
</svg>
