<svg width="158" height="148" viewBox="0 0 158 148" fill="none" xmlns="http://www.w3.org/2000/svg">
<path d="M38.9578 25.1054C35.0467 33.8663 36.5916 49.5629 37.2174 60.5401C32.9934 62.8802 27.57 58.7735 24.4998 58.7735C21.3057 58.7735 17.4924 60.8725 16.8927 64.0014C16.4624 66.2568 17.4728 69.5421 24.7214 72.4038C27.5244 73.5119 34.1928 74.8156 35.7377 78.4529C37.9084 83.5635 24.591 107.154 3.67959 110.596C2.04345 110.863 0.876634 112.323 0.967894 113.979C1.33293 120.334 15.5824 122.824 21.8989 123.802C22.5442 124.676 23.0657 128.365 23.8935 131.175C24.2651 132.433 25.2233 133.939 27.6873 133.939C30.901 133.939 36.2396 131.462 45.535 133C54.6479 134.519 63.2132 147.438 79.6595 147.438C94.9454 147.438 104.065 134.46 112.839 133C117.917 132.159 122.278 132.426 127.153 133.378C130.51 134.036 133.522 134.401 134.48 131.103C135.321 128.254 135.836 124.637 136.468 123.783C142.726 122.811 157.041 120.328 157.399 113.972C157.491 112.317 156.324 110.863 154.688 110.589C134.128 107.2 120.407 83.6808 122.63 78.4464C124.168 74.8156 130.791 73.5249 133.646 72.3972C138.952 70.3048 141.611 67.73 141.553 64.751C141.481 60.9377 136.892 58.6627 133.515 58.6627C130.08 58.6627 125.146 62.7303 121.15 60.527C121.776 49.4586 123.314 33.8337 119.409 25.0793C112.011 8.50272 95.5516 0.119873 79.0989 0.119873C62.7504 0.119873 46.415 8.38538 38.9578 25.1054Z" fill="white"/>
</svg>
