<svg width="99" height="80" viewBox="0 0 99 80" fill="none" xmlns="http://www.w3.org/2000/svg">
<path d="M88.8996 20C88.9996 20.9 88.9996 21.7 88.9996 22.6C88.9996 49.3 68.6996 80 31.5996 80C20.1996 80 9.49961 76.7 0.599609 70.9C2.19961 71.1 3.79961 71.1 5.49961 71.1C14.8996 71.1 23.5996 67.9 30.4996 62.5C21.5996 62.3 14.1996 56.5 11.5996 48.5C12.7996 48.7 14.0996 48.8 15.3996 48.8C17.1996 48.8 18.9996 48.6 20.6996 48.1C11.4996 46.2 4.49961 38.1 4.49961 28.3V28.1C7.19961 29.6 10.2996 30.5 13.5996 30.7C8.19961 27.1 4.59961 20.9 4.59961 13.9C4.59961 10.2 5.59961 6.7 7.29961 3.7C17.3996 16 32.2996 24 48.9996 24.8C48.6996 23.3 48.4996 21.7 48.4996 20.2C48.4996 9.1 57.4996 0 68.6996 0C74.4996 0 79.7996 2.4 83.3996 6.4C87.9996 5.5 92.2996 3.8 96.1996 1.5C94.6996 6.2 91.4996 10.1 87.2996 12.6C91.3996 12.2 95.2996 11 98.8996 9.5C96.2996 13.5 92.7996 17.1 88.8996 20Z" fill="white"/>
</svg>
