<svg width="158" height="137" viewBox="0 0 158 137" fill="none" xmlns="http://www.w3.org/2000/svg">
<path d="M149.852 56.1508C133.934 90.1579 95.5071 136.452 71.2191 136.452C47.2831 136.452 43.8218 85.4059 30.7521 51.4316C24.3183 34.7116 20.166 38.551 8.10679 46.9925L0.753906 37.508C18.3409 22.0461 35.9409 4.08758 46.7551 3.09024C58.9317 1.92343 66.428 10.2476 69.2309 28.0692C72.9335 51.4902 78.1092 87.8438 87.1438 87.8438C94.1838 87.8438 111.53 59.0059 112.423 48.6938C114.007 33.5969 101.322 33.1406 90.3118 37.8535C107.736 -19.2096 180.222 -8.70174 149.852 56.1508Z" fill="white"/>
</svg>
