<svg width="84" height="68" viewBox="0 0 84 68" fill="none" xmlns="http://www.w3.org/2000/svg">
<path d="M67.6673 2.79166C50.6175 -0.0415573 33.2171 -0.0415573 16.1673 2.79166C6.41732 4.83333 0.333984 11.125 0.333984 19.3333V48.5C0.333984 56.8333 6.41732 63.0417 16.334 65.1667C24.8153 66.5946 33.4 67.3193 42.0006 67.3333C50.6277 67.3314 59.24 66.6207 67.7506 65.2083C77.4173 63.375 83.6673 56.875 83.6673 48.5417V19.375C83.6673 11.0833 77.4173 4.58333 67.6673 2.79166ZM55.584 35.875L34.7507 48.375C34.4248 48.5736 34.0489 48.6748 33.6673 48.6667C33.3056 48.6637 32.9493 48.5782 32.6256 48.4167C32.298 48.2178 32.029 47.9357 31.846 47.599C31.663 47.2623 31.5726 46.8831 31.584 46.5V21.5C31.5871 21.131 31.6845 20.7689 31.8667 20.4481C32.049 20.1272 32.3103 19.8583 32.6256 19.6667C32.9524 19.4916 33.3174 19.4 33.6882 19.4C34.0589 19.4 34.4239 19.4916 34.7507 19.6667L55.584 32.1667C55.8851 32.3587 56.133 32.6235 56.3047 32.9367C56.4764 33.2498 56.5664 33.6012 56.5664 33.9583C56.5664 34.3155 56.4764 34.6668 56.3047 34.98C56.133 35.2931 55.8851 35.558 55.584 35.75V35.875Z" fill="white"/>
</svg>
