<svg xmlns="http://www.w3.org/2000/svg" viewBox="0 0 62.23 59.81"><path d="M26.9 59.81H0v-23.3C0 17.29 7.19 7.12 25.58 0l.76 2C8.71 8.78 2.14 18.12 2.14 36.51v21.16H26.9zm0-25.58H11.75l-.06-1c-.9-11.76 3.8-18.74 17.42-25.65l1 1.86C17.77 15.76 13.28 22 13.76 32.08H26.9zm35.33 25.58h-30.7v-23.3c0-19.22 7.19-29.39 25.65-36.51l.76 2c-17.7 6.77-24.27 16.11-24.27 34.5v21.17h26.42V34.23H43.35l-.07-1C42.32 21.5 47 14.52 60.64 7.61l1 1.86C49.3 15.76 44.81 22 45.29 32.08h16.87l.07 27.73z" fill="#25d9b8" data-name="Layer 2"/></svg>