<svg width="200" height="162" fill="none" xmlns="http://www.w3.org/2000/svg"><g clip-path="url(#clip0_615_113)" fill="#fff"><path d="M20.075.23h159.923c2.933.038 5.822.721 8.462 2l-88.154 103.076L12.228 2.23a8.076 8.076 0 017.693-2h.154zM-.002 139.921V18.536l58.77 68.54L.69 145.152a13.468 13.468 0 01-.692-5.232z"/><path d="M179.531 159.535H19.607a13.834 13.834 0 01-5.23-.691l56.77-56.771 28.076 32.616 28.076-32.616 56.846 56.771c-.692.693-2.614.691-4.614.691zm20.238-19.614a15.4 15.4 0 01-.615 5.232L141 87.075l58.769-68.54v121.386z"/></g><defs><clipPath id="clip0_615_113"><path fill="#fff" d="M0 0h200v161.538H0z"/></clipPath></defs></svg>