<svg width="86" height="85" fill="none" xmlns="http://www.w3.org/2000/svg"><path d="M61.7 85H25.1C11.8 85 .9 74.1.9 60.8V24.2C.9 10.9 11.8 0 25.1 0h36.6C75 0 85.9 10.9 85.9 24.2v36.6C85.9 74.1 75.1 85 61.7 85zM25.1 7.3c-9.3 0-16.9 7.6-16.9 16.9v36.6c0 9.3 7.6 16.9 16.9 16.9h36.6c9.3 0 16.9-7.6 16.9-16.9V24.2c0-9.3-7.6-16.9-16.9-16.9H25.1z" fill="#fff"/><path d="M43.4 64.3c-12 0-21.8-9.8-21.8-21.8s9.8-21.8 21.8-21.8 21.8 9.8 21.8 21.8-9.8 21.8-21.8 21.8zm0-36.3c-8 0-14.5 6.5-14.5 14.5S35.4 57 43.4 57s14.5-6.5 14.5-14.5S51.4 28 43.4 28zm27.9-8.5c0 2.9-2.3 5.2-5.2 5.2-2.9 0-5.2-2.3-5.2-5.2 0-2.9 2.3-5.2 5.2-5.2 2.9 0 5.2 2.3 5.2 5.2z" fill="#fff"/></svg>