<svg version="1.1" id="Layer_1" xmlns="http://www.w3.org/2000/svg" x="0" y="0" viewBox="0 0 100 100" xml:space="preserve"><style>.st0{fill:#fff}</style><g id="Instagram"><path class="st0" d="M67.7 100H31.1C17.8 100 6.9 89.1 6.9 75.8V39.2C6.9 25.9 17.8 15 31.1 15h36.6C81 15 91.9 25.9 91.9 39.2v36.6c0 13.3-10.8 24.2-24.2 24.2zM31.1 22.3c-9.3 0-16.9 7.6-16.9 16.9v36.6c0 9.3 7.6 16.9 16.9 16.9h36.6c9.3 0 16.9-7.6 16.9-16.9V39.2c0-9.3-7.6-16.9-16.9-16.9H31.1z"/><path class="st0" d="M49.4 79.3c-12 0-21.8-9.8-21.8-21.8s9.8-21.8 21.8-21.8 21.8 9.8 21.8 21.8-9.8 21.8-21.8 21.8zm0-36.3c-8 0-14.5 6.5-14.5 14.5S41.4 72 49.4 72s14.5-6.5 14.5-14.5S57.4 43 49.4 43zm27.9-8.5c0 2.9-2.3 5.2-5.2 5.2-2.9 0-5.2-2.3-5.2-5.2s2.3-5.2 5.2-5.2c2.9 0 5.2 2.3 5.2 5.2z"/></g></svg>