<svg width="163" height="176" fill="none" xmlns="http://www.w3.org/2000/svg"><g clip-path="url(#clip0_615_131)" fill="#fff"><path d="M35.523 53.256H.584v122.548h34.94V53.256zM17.728 35.46c9.793 0 17.73-7.937 17.73-17.73C35.459 7.938 27.522 0 17.729 0S-.002 7.938-.002 17.73c0 9.793 7.938 17.73 17.73 17.73zm140.28 140.279h-34.941v-69.813a17.73 17.73 0 10-35.46 0v69.813H52.668V53.256h34.94v21.707c7.43-9.712 18.316-21.707 30.897-21.707 21.772 0 39.503 19.555 39.503 44.065v78.418z"/></g><defs><clipPath id="clip0_615_131"><path fill="#fff" d="M0 0h162.963v176H0z"/></clipPath></defs></svg>