<svg width="101" height="29" fill="none" xmlns="http://www.w3.org/2000/svg"><path d="M1.888 27H15.46v-1.44H3.436V1.8H1.888V27zm15.181-12.78c0 7.416 5.724 13.212 12.744 13.212s12.744-5.796 12.744-13.212c0-7.236-5.724-12.852-12.744-12.852S17.07 6.984 17.07 14.22zm1.62 0c0-6.444 4.968-11.376 11.124-11.376 6.156 0 11.124 4.932 11.124 11.376 0 6.624-4.968 11.736-11.124 11.736-6.156 0-11.124-5.112-11.124-11.736zm28.194.18c0 7.308 5.328 13.032 12.348 13.032 5.58 0 8.604-3.708 8.604-3.708h.073s-.037.54-.037 1.08V27h1.549V15.516h-6.05v1.44h4.5v4.86s-3.24 4.14-8.64 4.14c-6.227 0-10.727-5.004-10.727-11.556 0-6.516 4.608-11.556 10.944-11.556 4.824 0 7.848 2.556 7.848 2.556l.935-1.188s-3.096-2.844-8.783-2.844c-7.129 0-12.565 5.76-12.565 13.032zm27.175-.18c0 7.416 5.724 13.212 12.744 13.212s12.744-5.796 12.744-13.212c0-7.236-5.724-12.852-12.744-12.852S74.058 6.984 74.058 14.22zm1.62 0c0-6.444 4.968-11.376 11.124-11.376 6.156 0 11.124 4.932 11.124 11.376 0 6.624-4.968 11.736-11.124 11.736-6.156 0-11.124-5.112-11.124-11.736z" fill="#fff"/><path d="M1.888 27h-1v1h1v-1zm13.572 0v1h1v-1h-1zm0-1.44h1v-1h-1v1zm-12.024 0h-1v1h1v-1zm0-23.76h1v-1h-1v1zm-1.548 0v-1h-1v1h1zm0 26.2H15.46v-2H1.888v2zm14.572-1v-1.44h-2V27h2zm-1-2.44H3.436v2H15.46v-2zm-11.024 1V1.8h-2v23.76h2zM3.436.8H1.888v2h1.548v-2zm-2.548 1V27h2V1.8h-2zm15.181 12.42c0 7.94 6.145 14.212 13.744 14.212v-2c-6.44 0-11.744-5.32-11.744-12.212h-2zm13.744 14.212c7.6 0 13.744-6.271 13.744-14.212h-2c0 6.891-5.303 12.212-11.744 12.212v2zM43.557 14.22c0-7.788-6.171-13.852-13.744-13.852v2c6.468 0 11.744 5.168 11.744 11.852h2zM29.813.368C22.241.368 16.07 6.432 16.07 14.22h2c0-6.684 5.277-11.852 11.744-11.852v-2zM19.69 14.22c0-5.904 4.533-10.376 10.124-10.376v-2c-6.72 0-12.124 5.392-12.124 12.376h2zM29.813 3.844c5.591 0 10.124 4.472 10.124 10.376h2c0-6.984-5.403-12.376-12.124-12.376v2zM39.937 14.22c0 6.115-4.563 10.736-10.124 10.736v2c6.751 0 12.124-5.604 12.124-12.736h-2zM29.813 24.956c-5.56 0-10.124-4.62-10.124-10.736h-2c0 7.132 5.373 12.736 12.124 12.736v-2zm38.023-1.232v-1h-.475l-.3.368.774.632zm.072 0l.997.067.071-1.067h-1.069v1zM67.87 27h-1v1h1v-1zm1.549 0v1h1v-1h-1zm0-11.484h1v-1h-1v1zm-6.049 0v-1h-1v1h1zm0 1.44h-1v1h1v-1zm4.5 0h1v-1h-1v1zm0 4.86l.788.616.212-.271v-.345h-1zM67.296 5.4l-.646.764.79.668.641-.813-.785-.619zm.935-1.188l.786.619.574-.728-.683-.627-.677.736zM45.884 14.4c0 7.804 5.72 14.032 13.347 14.032v-2c-6.412 0-11.348-5.22-11.348-12.032h-2zM59.23 28.432a12.79 12.79 0 008.729-3.4 9.275 9.275 0 00.632-.654l.012-.014.004-.005.001-.002c.001 0 .002-.001-.773-.633l-.775-.633.001-.001-.001.002-.017.02-.084.093a7.26 7.26 0 01-.368.369 10.79 10.79 0 01-7.36 2.858v2zm8.604-3.708h.073v-2h-.073v2zm.073-1l-.998-.066v.008l-.002.02a12.439 12.439 0 00-.017.331c-.01.21-.02.497-.02.787h2a16.274 16.274 0 01.033-.994l.001-.015a.05.05 0 010-.004l-.998-.067zm-1.037 1.08V27h2v-2.196h-2zm1 3.196h1.549v-2H67.87v2zm2.549-1V15.516h-2V27h2zm-1-12.484H63.37v2h6.048v-2zm-7.049 1v1.44h2v-1.44h-2zm1 2.44h4.5v-2h-4.5v2zm3.5-1v4.86h2v-4.86h-2zm1 4.86a135.263 135.263 0 01-.786-.617v-.001l-.002.003-.02.025-.094.11a8.924 8.924 0 01-.395.42c-.355.355-.884.832-1.57 1.31-1.373.957-3.336 1.89-5.773 1.89v2c2.964 0 5.32-1.137 6.917-2.25a13.7 13.7 0 001.84-1.536 10.87 10.87 0 00.653-.716l.012-.014a.15.15 0 01.003-.004l.002-.002v-.001l-.787-.617zm-8.64 3.14c-5.598 0-9.727-4.476-9.727-10.556h-2c0 7.024 4.87 12.556 11.727 12.556v-2zM49.504 14.4c0-6.026 4.22-10.556 9.944-10.556v-2c-6.949 0-11.944 5.55-11.944 12.556h2zm9.944-10.556c2.233 0 4.05.592 5.307 1.183.628.295 1.114.59 1.437.805a7.358 7.358 0 01.46.334l-.001-.001c0-.001-.001-.001.645-.765l.644-.764-.002-.002-.004-.004a2.981 2.981 0 00-.174-.137 9.357 9.357 0 00-.457-.324 13.147 13.147 0 00-1.697-.952 14.475 14.475 0 00-6.158-1.373v2zm8.633 2.175l.936-1.188-1.571-1.238-.936 1.188 1.571 1.238zm.15-1.807a99.907 99.907 0 00.675-.738l-.001-.001-.005-.004-.012-.011a3.187 3.187 0 00-.17-.144 8.8 8.8 0 00-.484-.364 12.805 12.805 0 00-1.83-1.062c-1.598-.765-3.941-1.52-6.956-1.52v2c2.672 0 4.721.667 6.093 1.324.686.329 1.203.655 1.543.894a6.809 6.809 0 01.473.364l.001.001-.002-.001v-.001l.675-.737zM59.448.368c-7.72 0-13.565 6.249-13.565 14.032h2c0-6.76 5.029-12.032 11.564-12.032v-2zm13.61 13.852c0 7.94 6.144 14.212 13.744 14.212v-2c-6.441 0-11.744-5.32-11.744-12.212h-2zm13.744 14.212c7.599 0 13.744-6.271 13.744-14.212h-2c0 6.891-5.304 12.212-11.744 12.212v2zm13.744-14.212c0-7.788-6.172-13.852-13.744-13.852v2c6.467 0 11.744 5.168 11.744 11.852h2zM86.802.368c-7.573 0-13.744 6.064-13.744 13.852h2c0-6.684 5.276-11.852 11.744-11.852v-2zM76.678 14.22c0-5.904 4.532-10.376 10.124-10.376v-2c-6.721 0-12.124 5.392-12.124 12.376h2zM86.802 3.844c5.59 0 10.124 4.472 10.124 10.376h2c0-6.984-5.404-12.376-12.124-12.376v2zM96.926 14.22c0 6.115-4.564 10.736-10.124 10.736v2c6.75 0 12.124-5.604 12.124-12.736h-2zM86.802 24.956c-5.561 0-10.124-4.62-10.124-10.736h-2c0 7.132 5.373 12.736 12.124 12.736v-2z" fill="#fff"/></svg>