<svg width="158" height="148" fill="none" xmlns="http://www.w3.org/2000/svg"><path d="M38.958 25.105c-3.911 8.761-2.366 24.458-1.74 35.435-4.225 2.34-9.648-1.767-12.718-1.767-3.194 0-7.008 2.1-7.607 5.228-.43 2.256.58 5.541 7.828 8.403 2.803 1.108 9.472 2.412 11.017 6.049 2.17 5.11-11.147 28.701-32.058 32.143a3.242 3.242 0 00-2.712 3.383c.365 6.355 14.614 8.845 20.93 9.823.646.874 1.168 4.563 1.995 7.373.372 1.258 1.33 2.764 3.794 2.764 3.214 0 8.553-2.477 17.848-.939 9.113 1.519 17.678 14.438 34.124 14.438 15.286 0 24.406-12.978 33.18-14.438 5.078-.841 9.439-.574 14.314.378 3.357.658 6.369 1.023 7.327-2.275.841-2.849 1.356-6.466 1.988-7.32 6.258-.972 20.573-3.455 20.931-9.811a3.247 3.247 0 00-2.711-3.383c-20.56-3.389-34.281-26.908-32.058-32.143 1.538-3.63 8.161-4.921 11.016-6.049 5.306-2.092 7.965-4.667 7.907-7.646-.072-3.813-4.661-6.088-8.038-6.088-3.435 0-8.369 4.067-12.365 1.864.626-11.068 2.164-26.693-1.741-35.448C112.011 8.503 95.552.12 79.099.12 62.75.12 46.415 8.386 38.958 25.106z" fill="#fff"/></svg>