<svg width="99" height="80" fill="none" xmlns="http://www.w3.org/2000/svg"><path d="M88.9 20c.1.9.1 1.7.1 2.6C89 49.3 68.7 80 31.6 80c-11.4 0-22.1-3.3-31-9.1 1.6.2 3.2.2 4.9.2 9.4 0 18.1-3.2 25-8.6-8.9-.2-16.3-6-18.9-14 1.2.2 2.5.3 3.8.3 1.8 0 3.6-.2 5.3-.7-9.2-1.9-16.2-10-16.2-19.8v-.2c2.7 1.5 5.8 2.4 9.1 2.6-5.4-3.6-9-9.8-9-16.8 0-3.7 1-7.2 2.7-10.2C17.4 16 32.3 24 49 24.8c-.3-1.5-.5-3.1-.5-4.6C48.5 9.1 57.5 0 68.7 0c5.8 0 11.1 2.4 14.7 6.4 4.6-.9 8.9-2.6 12.8-4.9-1.5 4.7-4.7 8.6-8.9 11.1 4.1-.4 8-1.6 11.6-3.1-2.6 4-6.1 7.6-10 10.5z" fill="#fff"/></svg>