<svg width="84" height="68" fill="none" xmlns="http://www.w3.org/2000/svg"><path d="M67.667 2.792a157.084 157.084 0 00-51.5 0C6.417 4.833.334 11.125.334 19.333V48.5c0 8.333 6.083 14.542 16 16.667a156.128 156.128 0 0025.667 2.166 157.443 157.443 0 0025.75-2.125c9.666-1.833 15.916-8.333 15.916-16.666V19.375c0-8.292-6.25-14.792-16-16.583zM55.584 35.875l-20.833 12.5a2 2 0 01-1.084.292 2.378 2.378 0 01-1.041-.25 2.168 2.168 0 01-1.042-1.917v-25a2.167 2.167 0 011.042-1.833 2.25 2.25 0 012.125 0l20.833 12.5a2.124 2.124 0 010 3.583v.125z" fill="#fff"/></svg>